<svg id="Layer_1" data-name="Layer 1" xmlns="http://www.w3.org/2000/svg" viewBox="0 0 1294 400">
  <defs>
    <style>
      .cls-1 {
        fill: #dd3432;
      }
    </style>
  </defs>
  <g>
    <path class="cls-1" d="M107.8,251.1c7.5,0,12.7-.7,15.8-2.2s4.7-4.3,4.7-8.4-2-6.2-6-8.6-10.1-5.3-18.3-8.4a170.2,170.2,0,0,1-17.3-7.3A52.3,52.3,0,0,1,73.4,207,36.1,36.1,0,0,1,65,194.3a46.8,46.8,0,0,1-3-17.7c0-13.5,5-24.1,15-31.9s23.7-11.8,41.2-11.8a128,128,0,0,1,25.1,2.4,114,114,0,0,1,19.1,5L155.3,172a141.5,141.5,0,0,0-15.4-4.4,82.7,82.7,0,0,0-18.7-1.9c-12.8,0-19.1,3.5-19.1,10.6a11.9,11.9,0,0,0,.8,4.4,8.6,8.6,0,0,0,3.3,3.7,41.8,41.8,0,0,0,6.7,3.8c2.8,1.4,6.4,2.9,10.7,4.6a167.1,167.1,0,0,1,22.1,9.7,50.7,50.7,0,0,1,13.8,10.4,31.1,31.1,0,0,1,7.1,12.4,53.5,53.5,0,0,1,2.1,15.8c0,14.2-5.4,24.9-16,32.1s-25.7,10.9-45.2,10.9q-19.1,0-31.8-3.3a131,131,0,0,1-17.6-5.4l6.9-33a141.3,141.3,0,0,0,21.3,6.4A105.5,105.5,0,0,0,107.8,251.1Z"/>
    <path class="cls-1" d="M198.9,280.3V75.1l40.7-6.6v68.8a80.2,80.2,0,0,1,10.5-2.6,67.5,67.5,0,0,1,12.4-1.2q17.5,0,29.1,4.8a45.2,45.2,0,0,1,18.5,13.5,51.1,51.1,0,0,1,9.9,20.7,116.1,116.1,0,0,1,2.8,26.8v81H282.2V204.2q0-19.6-5.1-27.9c-3.3-5.4-9.6-8.2-18.7-8.2a55.1,55.1,0,0,0-10.2,1,77.5,77.5,0,0,0-8.6,2.1V280.3Z"/>
    <path class="cls-1" d="M493.9,208.3a92.3,92.3,0,0,1-4.9,30.9,66.8,66.8,0,0,1-14.2,24,64.5,64.5,0,0,1-22.2,15.5,80.3,80.3,0,0,1-57.9,0,64.5,64.5,0,0,1-22.2-15.5,70.4,70.4,0,0,1-14.5-24,89.8,89.8,0,0,1-5.1-30.9,84.9,84.9,0,0,1,5.3-30.9,67.9,67.9,0,0,1,14.7-23.7,64.7,64.7,0,0,1,22.4-15.3,72.3,72.3,0,0,1,28.2-5.5,73.1,73.1,0,0,1,28.5,5.5,63.4,63.4,0,0,1,22.3,15.3,67.3,67.3,0,0,1,14.4,23.7A87.1,87.1,0,0,1,493.9,208.3Zm-41.4,0c0-12.6-2.5-22.5-7.6-29.6s-12.1-10.8-21.4-10.8-16.4,3.6-21.5,10.8-7.7,17-7.7,29.6,2.6,22.5,7.7,29.8,12.2,11.1,21.5,11.1,16.4-3.7,21.4-11.1S452.5,220.8,452.5,208.3Z"/>
    <path class="cls-1" d="M609.5,197.9c-3.6,13.8-7.5,27.6-11.6,41.2s-8.4,27.4-13,41.2H553.3c-3.3-7.6-6.9-16.7-10.7-27.3s-7.8-22-11.9-34.5-8.3-25.7-12.6-39.6-8.4-27.9-12.4-42.1h42.8c1.5,6.5,3.1,13.7,4.8,21.4s3.6,15.7,5.5,23.9,3.9,16.4,6,24.7,4.3,16.2,6.5,23.8c2.4-8,4.7-16.2,7-24.5s4.4-16.6,6.5-24.7,4.1-15.9,6-23.5,3.6-14.6,5.1-21.1h29.4c1.5,6.5,3.1,13.6,4.9,21.1l5.8,23.5c2,8.1,4.1,16.3,6.2,24.7s4.5,16.5,6.9,24.5c2.2-7.6,4.4-15.6,6.6-23.8s4.2-16.5,6.1-24.7,3.8-16.2,5.5-23.9,3.4-14.9,4.8-21.4h42.3c-4,14.2-8.1,28.2-12.4,42.1s-8.5,27.1-12.6,39.6-8.1,24-12.1,34.5-7.5,19.7-10.8,27.3H634.9c-4.6-13.8-9-27.6-13.4-41.2S613.1,211.7,609.5,197.9Z"/>
    <path class="cls-1" d="M758.1,330.8H740.3V144.1a163.2,163.2,0,0,1,20.2-5.1c8.2-1.7,18.6-2.5,31.1-2.5a77.5,77.5,0,0,1,28.3,5,62.9,62.9,0,0,1,21.8,14.6,67.1,67.1,0,0,1,14.2,23.2,87.8,87.8,0,0,1,5.1,30.9,99.4,99.4,0,0,1-4.3,29.6A65.4,65.4,0,0,1,844.3,263a56.7,56.7,0,0,1-20,15.1c-8,3.7-17,5.5-27.2,5.5s-17.3-1.3-24.1-4-11.8-5.1-14.9-7.5Zm0-75.9a49.4,49.4,0,0,0,6.1,4.1,57.6,57.6,0,0,0,8.6,4.1,64,64,0,0,0,10.7,3.1,51.9,51.9,0,0,0,12,1.3q13.1,0,21.9-4.5a39.1,39.1,0,0,0,14.4-12.3,54.3,54.3,0,0,0,7.9-18.3,99.4,99.4,0,0,0,2.4-22.2c0-18.6-4.6-32.8-13.9-42.7s-21.5-14.9-36.8-14.9a149.7,149.7,0,0,0-21.2,1.2,77.6,77.6,0,0,0-12.1,2.6Z"/>
    <path class="cls-1" d="M942.3,135.9c9.3,0,17.1,1.4,23.6,4a41,41,0,0,1,15.7,10.9,43.6,43.6,0,0,1,8.7,16.5,76.4,76.4,0,0,1,2.7,20.8V277a56.7,56.7,0,0,1-7.9,1.8l-12,2a149.3,149.3,0,0,1-15.1,1.8c-5.6.5-11.3.7-17.1.7a78.6,78.6,0,0,1-20.6-2.5,46,46,0,0,1-16.4-7.7A37.9,37.9,0,0,1,893,259.4c-2.6-5.5-3.9-12.3-3.9-20.3s1.4-14.2,4.3-19.6a37.3,37.3,0,0,1,12.3-13.6,55.9,55.9,0,0,1,18.8-7.7,104.7,104.7,0,0,1,23.8-2.5,75.1,75.1,0,0,1,8,.4l8.2,1.1c2.6.5,4.9.9,6.8,1.4a16.2,16.2,0,0,1,4,1.2v-8.7a97.6,97.6,0,0,0-1.1-14.4,30.2,30.2,0,0,0-4.8-12.5,26.7,26.7,0,0,0-10.3-9c-4.5-2.3-10.4-3.4-17.6-3.4-10.4,0-18.1.7-23.2,2.2s-8.9,2.6-11.2,3.5L904.6,142c3.1-1.5,7.9-2.9,14.3-4.1A120.7,120.7,0,0,1,942.3,135.9Zm1.6,131.6c6.9,0,13-.2,18.2-.7a117.7,117.7,0,0,0,13.2-1.8V215.4a47,47,0,0,0-9.6-2.9q-6.5-1.5-18-1.5a108.2,108.2,0,0,0-13.6.9A43.6,43.6,0,0,0,921,216a27.2,27.2,0,0,0-9.8,8.6c-2.6,3.7-3.9,8.5-3.9,14.5a31.7,31.7,0,0,0,2.6,13.4,22.4,22.4,0,0,0,7.4,8.7,32.4,32.4,0,0,0,11.5,4.8A68.9,68.9,0,0,0,943.9,267.5Z"/>
    <path class="cls-1" d="M1067.3,267.7c10.1,0,18.5-1.6,25.2-5s10-9,10-17.1a24.5,24.5,0,0,0-1.8-9.8,19.3,19.3,0,0,0-5.9-7.3,48.1,48.1,0,0,0-10.8-6.3c-4.4-2-9.9-4.4-16.5-7.1s-10.3-4.4-15-6.7a62,62,0,0,1-12.5-7.9,34,34,0,0,1-8.8-10.8c-2.2-4.2-3.2-9.3-3.2-15.3,0-11.4,4.3-20.7,12.9-27.8s20.5-10.7,35.6-10.7a98.3,98.3,0,0,1,23.9,2.5c6.3,1.6,10.7,3.1,13.2,4.4l-4.1,15.8a110,110,0,0,0-11-4.4q-7.8-2.7-22.8-2.7a50.9,50.9,0,0,0-11.3,1.2,29.5,29.5,0,0,0-9.4,3.9,20.5,20.5,0,0,0-6.6,6.5,18.6,18.6,0,0,0-2.4,9.7,21.6,21.6,0,0,0,2.1,9.9,22,22,0,0,0,6.5,7.2,51.8,51.8,0,0,0,10.3,5.9l14.1,6c5.4,2.1,10.7,4.4,15.7,6.6a57.8,57.8,0,0,1,13.2,8.2,39.5,39.5,0,0,1,9.3,11.4c2.3,4.5,3.5,10.1,3.5,16.8,0,12.8-4.7,22.4-14.3,29s-22.6,9.8-39.1,9.8c-12.4,0-21.9-1.1-28.4-3.2a95.4,95.4,0,0,1-13.1-4.7l4.6-16.1,3.6,1.7a54,54,0,0,0,7.3,2.8,92.1,92.1,0,0,0,11.1,2.6A93.6,93.6,0,0,0,1067.3,267.7Z"/>
    <path class="cls-1" d="M1184,267.7c10.2,0,18.6-1.6,25.3-5s9.9-9,9.9-17.1a24.5,24.5,0,0,0-1.7-9.8,19.3,19.3,0,0,0-5.9-7.3,48.1,48.1,0,0,0-10.8-6.3c-4.4-2-9.9-4.4-16.5-7.1s-10.3-4.4-15-6.7a62,62,0,0,1-12.5-7.9,34,34,0,0,1-8.8-10.8,32.6,32.6,0,0,1-3.3-15.3c0-11.4,4.4-20.7,13-27.8s20.5-10.7,35.6-10.7a98.3,98.3,0,0,1,23.9,2.5c6.3,1.6,10.7,3.1,13.2,4.4l-4.1,15.8a110,110,0,0,0-11-4.4q-7.8-2.7-22.8-2.7a50.9,50.9,0,0,0-11.3,1.2,29.5,29.5,0,0,0-9.4,3.9,20.5,20.5,0,0,0-6.6,6.5,18.6,18.6,0,0,0-2.4,9.7,21.6,21.6,0,0,0,2.1,9.9,22,22,0,0,0,6.5,7.2,51.8,51.8,0,0,0,10.3,5.9l14.1,6c5.4,2.1,10.7,4.4,15.7,6.6a57.8,57.8,0,0,1,13.2,8.2A39.5,39.5,0,0,1,1234,228c2.3,4.5,3.5,10.1,3.5,16.8,0,12.8-4.7,22.4-14.3,29s-22.6,9.8-39.2,9.8c-12.3,0-21.8-1.1-28.3-3.2s-11-3.6-13.1-4.7l4.6-16.1,3.6,1.7a54,54,0,0,0,7.3,2.8,80.8,80.8,0,0,0,25.9,3.6Z"/>
  </g>
</svg>
