<svg id="Layer_1" data-name="Layer 1" xmlns="http://www.w3.org/2000/svg" viewBox="0 0 1294 400">
  <defs>
    <style>
      .cls-1 {
        fill: #fff;
      }
    </style>
  </defs>
  <g>
    <path class="cls-1" d="M107.8,248.9c7.5,0,12.7-.8,15.8-2.2s4.7-4.3,4.7-8.5-2-6.1-6-8.6a120,120,0,0,0-18.3-8.3,149.8,149.8,0,0,1-17.3-7.4,49.6,49.6,0,0,1-13.3-9.1A37.1,37.1,0,0,1,65,192.1a46.8,46.8,0,0,1-3-17.7c0-13.5,5-24.1,15-31.9s23.7-11.8,41.2-11.8a136.2,136.2,0,0,1,25.1,2.3,123.2,123.2,0,0,1,19.1,5.1l-7.1,31.6a141.9,141.9,0,0,0-15.4-4.3,82.7,82.7,0,0,0-18.7-1.9c-12.8,0-19.1,3.5-19.1,10.6a12.3,12.3,0,0,0,.8,4.4,9.2,9.2,0,0,0,3.3,3.7,51.3,51.3,0,0,0,6.7,3.8,112.2,112.2,0,0,0,10.7,4.5,166.1,166.1,0,0,1,22.1,9.8,50.7,50.7,0,0,1,13.8,10.4,30.4,30.4,0,0,1,7.1,12.4,53.5,53.5,0,0,1,2.1,15.8c0,14.1-5.4,24.8-16,32.1s-25.7,10.9-45.2,10.9q-19.1,0-31.8-3.3a148,148,0,0,1-17.6-5.4L65,240.1a131,131,0,0,0,21.3,6.5A105.5,105.5,0,0,0,107.8,248.9Z"/>
    <path class="cls-1" d="M198.9,278.1V72.9l40.7-6.6v68.8a80.2,80.2,0,0,1,10.5-2.6,67.5,67.5,0,0,1,12.4-1.2c11.7,0,21.4,1.6,29.1,4.7a45.2,45.2,0,0,1,18.5,13.5,52.2,52.2,0,0,1,9.9,20.8,115.8,115.8,0,0,1,2.8,26.7v81.1H282.2V201.9c0-13.1-1.7-22.3-5.1-27.8s-9.6-8.2-18.7-8.2a47.7,47.7,0,0,0-10.2,1c-3.2.6-6,1.3-8.6,2V278.1Z"/>
    <path class="cls-1" d="M493.9,206a92.9,92.9,0,0,1-4.9,31,66.8,66.8,0,0,1-14.2,24,62.9,62.9,0,0,1-22.2,15.4,78.9,78.9,0,0,1-57.9,0A62.9,62.9,0,0,1,372.5,261,70.4,70.4,0,0,1,358,237a90.4,90.4,0,0,1-5.1-31,84.8,84.8,0,0,1,5.3-30.8,67.9,67.9,0,0,1,14.7-23.7,64.7,64.7,0,0,1,22.4-15.3,70.6,70.6,0,0,1,28.2-5.5,71.4,71.4,0,0,1,28.5,5.5,63.4,63.4,0,0,1,22.3,15.3,67.3,67.3,0,0,1,14.4,23.7A86.9,86.9,0,0,1,493.9,206Zm-41.4,0c0-12.5-2.5-22.4-7.6-29.6s-12.1-10.8-21.4-10.8-16.4,3.6-21.5,10.8-7.7,17.1-7.7,29.6,2.6,22.5,7.7,29.9S414.2,247,423.5,247s16.4-3.7,21.4-11.1S452.5,218.6,452.5,206Z"/>
    <path class="cls-1" d="M609.5,195.7c-3.6,13.8-7.5,27.5-11.6,41.2s-8.4,27.3-13,41.2H553.3c-3.3-7.7-6.9-16.8-10.7-27.3s-7.8-22.1-11.9-34.5-8.3-25.7-12.6-39.6-8.4-28-12.4-42.2h42.8c1.5,6.6,3.1,13.7,4.8,21.5s3.6,15.6,5.5,23.8,3.9,16.5,6,24.7,4.3,16.3,6.5,23.9c2.4-8,4.7-16.2,7-24.6s4.4-16.5,6.5-24.6,4.1-16,6-23.5,3.6-14.6,5.1-21.2h29.4c1.5,6.6,3.1,13.6,4.9,21.2s3.8,15.4,5.8,23.5,4.1,16.3,6.2,24.6,4.5,16.6,6.9,24.6c2.2-7.6,4.4-15.6,6.6-23.9s4.2-16.5,6.1-24.7,3.8-16.1,5.5-23.8,3.4-14.9,4.8-21.5h42.3c-4,14.2-8.1,28.3-12.4,42.2s-8.5,27.1-12.6,39.6-8.1,23.9-12.1,34.5-7.5,19.6-10.8,27.3H634.9c-4.6-13.9-9-27.6-13.4-41.2S613.1,209.5,609.5,195.7Z"/>
    <path class="cls-1" d="M758.1,328.6H740.3V141.9a180.9,180.9,0,0,1,20.2-5.2c8.2-1.6,18.6-2.4,31.1-2.4a75.4,75.4,0,0,1,28.3,5,61.5,61.5,0,0,1,21.8,14.6,67.1,67.1,0,0,1,14.2,23.2,87.7,87.7,0,0,1,5.1,30.8,98.9,98.9,0,0,1-4.3,29.6,63.8,63.8,0,0,1-12.4,23.2,55.8,55.8,0,0,1-20,15.2,65.4,65.4,0,0,1-27.2,5.4c-9.3,0-17.3-1.3-24.1-3.9s-11.8-5.1-14.9-7.5Zm0-75.9a63.9,63.9,0,0,0,6.1,4.1,69.5,69.5,0,0,0,8.6,4.1,64,64,0,0,0,10.7,3.1,58.1,58.1,0,0,0,12,1.2q13.1,0,21.9-4.5a39.8,39.8,0,0,0,14.4-12.2,54.3,54.3,0,0,0,7.9-18.3,99.6,99.6,0,0,0,2.4-22.3c0-18.5-4.6-32.7-13.9-42.7s-21.5-14.8-36.8-14.8a149.7,149.7,0,0,0-21.2,1.2,77.6,77.6,0,0,0-12.1,2.6Z"/>
    <path class="cls-1" d="M942.3,133.7c9.3,0,17.1,1.3,23.6,4a41,41,0,0,1,15.7,10.9,42.1,42.1,0,0,1,8.7,16.5,76.2,76.2,0,0,1,2.7,20.7v89l-7.9,1.8-12,2c-4.5.7-9.6,1.3-15.1,1.8s-11.3.7-17.1.7a78.6,78.6,0,0,1-20.6-2.5,44.5,44.5,0,0,1-16.4-7.8A37.5,37.5,0,0,1,893,257.2c-2.6-5.6-3.9-12.3-3.9-20.3s1.4-14.2,4.3-19.7a37.8,37.8,0,0,1,12.3-13.5,58.1,58.1,0,0,1,18.8-7.8,110.9,110.9,0,0,1,23.8-2.4,75.1,75.1,0,0,1,8,.4c2.8.3,5.6.6,8.2,1.1l6.8,1.3a20.5,20.5,0,0,1,4,1.3v-8.8a96.3,96.3,0,0,0-1.1-14.3,30.2,30.2,0,0,0-4.8-12.5,25.2,25.2,0,0,0-10.3-9c-4.5-2.3-10.4-3.5-17.6-3.5-10.4,0-18.1.8-23.2,2.2s-8.9,2.7-11.2,3.6l-2.5-15.6a71.7,71.7,0,0,1,14.3-4.1A130.1,130.1,0,0,1,942.3,133.7Zm1.6,131.5c6.9,0,13-.2,18.2-.6s9.6-1.1,13.2-1.8V213.1a56.2,56.2,0,0,0-9.6-2.8q-6.5-1.5-18-1.5a108.2,108.2,0,0,0-13.6.9,40.9,40.9,0,0,0-13.1,4.1,27.2,27.2,0,0,0-9.8,8.6c-2.6,3.6-3.9,8.5-3.9,14.5a31.2,31.2,0,0,0,2.6,13.3,22,22,0,0,0,7.4,8.8,32.3,32.3,0,0,0,11.5,4.7A68.9,68.9,0,0,0,943.9,265.2Z"/>
    <path class="cls-1" d="M1067.3,265.5c10.1,0,18.5-1.7,25.2-5s10-9.1,10-17.1a24.2,24.2,0,0,0-1.8-9.8,20.4,20.4,0,0,0-5.9-7.4,52.2,52.2,0,0,0-10.8-6.3c-4.4-2-9.9-4.3-16.5-7s-10.3-4.5-15-6.7a62,62,0,0,1-12.5-7.9,34,34,0,0,1-8.8-10.8c-2.2-4.2-3.2-9.3-3.2-15.3,0-11.5,4.3-20.7,12.9-27.8s20.5-10.7,35.6-10.7c9.7,0,17.6.8,23.9,2.5a77.5,77.5,0,0,1,13.2,4.3l-4.1,15.9a89.7,89.7,0,0,0-11-4.4q-7.8-2.7-22.8-2.7a50.9,50.9,0,0,0-11.3,1.2,29.4,29.4,0,0,0-9.4,3.8,21.9,21.9,0,0,0-6.6,6.6,18.4,18.4,0,0,0-2.4,9.7,19.4,19.4,0,0,0,8.6,17.1,57.2,57.2,0,0,0,10.3,5.9c4.1,1.8,8.8,3.8,14.1,5.9s10.7,4.4,15.7,6.7a54.5,54.5,0,0,1,13.2,8.2,38.2,38.2,0,0,1,9.3,11.4c2.3,4.5,3.5,10.1,3.5,16.8,0,12.7-4.7,22.4-14.3,28.9s-22.6,9.8-39.1,9.8c-12.4,0-21.9-1-28.4-3.1a106.5,106.5,0,0,1-13.1-4.8l4.6-16.1a22.7,22.7,0,0,0,3.6,1.8,77.3,77.3,0,0,0,18.4,5.3A82.4,82.4,0,0,0,1067.3,265.5Z"/>
    <path class="cls-1" d="M1184,265.5c10.2,0,18.6-1.7,25.3-5s9.9-9.1,9.9-17.1a24.2,24.2,0,0,0-1.7-9.8,20.4,20.4,0,0,0-5.9-7.4,52.2,52.2,0,0,0-10.8-6.3c-4.4-2-9.9-4.3-16.5-7s-10.3-4.5-15-6.7a62,62,0,0,1-12.5-7.9,34,34,0,0,1-8.8-10.8,32.6,32.6,0,0,1-3.3-15.3c0-11.5,4.4-20.7,13-27.8s20.5-10.7,35.6-10.7c9.7,0,17.6.8,23.9,2.5a77.5,77.5,0,0,1,13.2,4.3l-4.1,15.9a89.7,89.7,0,0,0-11-4.4q-7.8-2.7-22.8-2.7a50.9,50.9,0,0,0-11.3,1.2,29.4,29.4,0,0,0-9.4,3.8,21.9,21.9,0,0,0-6.6,6.6,18.4,18.4,0,0,0-2.4,9.7,19.4,19.4,0,0,0,8.6,17.1,57.2,57.2,0,0,0,10.3,5.9c4.1,1.8,8.8,3.8,14.1,5.9s10.7,4.4,15.7,6.7a54.5,54.5,0,0,1,13.2,8.2,38.2,38.2,0,0,1,9.3,11.4c2.3,4.5,3.5,10.1,3.5,16.8,0,12.7-4.7,22.4-14.3,28.9s-22.6,9.8-39.2,9.8c-12.3,0-21.8-1-28.3-3.1s-11-3.7-13.1-4.8l4.6-16.1a18.8,18.8,0,0,0,3.6,1.8,77.3,77.3,0,0,0,18.4,5.3A81.2,81.2,0,0,0,1184,265.5Z"/>
  </g>
</svg>
